<svg id="Capa_1" data-name="Capa 1" xmlns="http://www.w3.org/2000/svg" viewBox="0 0 612 612"><title>icoos</title><path d="M578.77,51.49v-.9H32.93v.9C15.27,52.7,2.1,66.75,0,83.81V442.53a35.2,35.2,0,0,0,4.79,17.95c6.89,12.14,17.07,18.27,31.14,18.27h197v49.7H195.52a16.48,16.48,0,0,0,0,33H416.18a16.48,16.48,0,1,0,0-33H378.76v-49.7h197c14.08,0,24.34-6.13,31.14-18.27A36.15,36.15,0,0,0,612,442.53V83.81C609.91,66.75,595.83,52.7,578.77,51.49Zm0,35.32V442.54c0,2.11-.9,3-3,3H35.93c-2.1,0-3-.89-3-3V83.81H578.77v3Z"/></svg>